<?xml version="1.0" encoding="iso-8859-1"?>
<!-- Uploaded to: SVG Repo, www.svgrepo.com, Generator: SVG Repo Mixer Tools -->
<svg fill="#000000" height="800px" width="800px" version="1.1" id="Layer_1" xmlns="http://www.w3.org/2000/svg" xmlns:xlink="http://www.w3.org/1999/xlink" 
	 viewBox="0 0 512 512" xml:space="preserve">
<g>
	<g>
		<g>
			<path d="M399.742,138.556l-32.037-54.02c-1.457-2.454-4.099-3.96-6.953-3.96h-5.11V8.084c0-4.466-3.618-8.084-8.084-8.084
				H164.444c-4.466,0-8.084,3.619-8.084,8.084v72.492h-5.11c-2.854,0-5.497,1.505-6.954,3.96l-32.037,54.02
				c-0.74,1.248-1.131,2.672-1.131,4.124v226.64c0,1.452,0.39,2.876,1.131,4.124l32.037,54.02c1.457,2.454,4.099,3.96,6.954,3.96
				h5.11v72.492c0,4.466,3.618,8.084,8.084,8.084h183.113c4.466,0,8.084-3.618,8.084-8.084v-72.492h5.11
				c2.854,0,5.497-1.505,6.953-3.96l32.037-54.02c0.741-1.248,1.131-2.672,1.131-4.124V142.68
				C400.872,141.228,400.482,139.804,399.742,138.556z M339.472,495.832H172.528v-64.407h166.944V495.832z M356.147,415.256h-8.591
				H164.444h-8.591l-28.557-48.153V144.897l28.557-48.153h144.939c4.466,0,8.084-3.618,8.084-8.084c0-4.466-3.618-8.084-8.084-8.084
				H172.528V16.168h166.944v64.407h-14.249c-4.466,0-8.084,3.619-8.084,8.084s3.618,8.084,8.084,8.084h30.923l28.557,48.153v222.206
				h0.001L356.147,415.256z"/>
			<path d="M344.479,148.411h-176.96c-12.818,0-23.246,10.429-23.246,23.246v168.686c0,12.818,10.429,23.246,23.246,23.246h16.5
				c4.466,0,8.084-3.618,8.084-8.084c0-4.466-3.618-8.084-8.084-8.084h-16.5c-3.903,0-7.077-3.174-7.077-7.077V171.657
				c0-3.903,3.174-7.077,7.077-7.077h176.96c3.904,0,7.08,3.174,7.08,7.077v168.686c0,3.903-3.175,7.077-7.08,7.077H208.811
				c-4.466,0-8.084,3.619-8.084,8.084c0,4.466,3.618,8.084,8.084,8.084h135.668c12.819,0,23.248-10.429,23.248-23.246V171.657
				C367.727,158.839,357.297,148.411,344.479,148.411z"/>
			<path d="M284.431,379.888h-56.861c-4.466,0-8.084,3.618-8.084,8.084c0,4.466,3.619,8.084,8.084,8.084h56.861
				c4.466,0,8.084-3.619,8.084-8.084C292.515,383.506,288.896,379.888,284.431,379.888z"/>
			<path d="M197.511,251.112h33.441c10.336,0,18.746-8.41,18.746-18.746v-30.208c0-10.336-8.41-18.746-18.746-18.746h-33.441
				c-10.337,0-18.747,8.41-18.747,18.746v30.208C178.766,242.702,187.174,251.112,197.511,251.112z M194.934,202.158
				c0-1.421,1.157-2.577,2.578-2.577h33.441c1.421,0,2.577,1.156,2.577,2.577v30.208c0,1.421-1.156,2.577-2.577,2.577h-33.441
				c-1.421,0-2.578-1.155-2.578-2.577V202.158z"/>
			<path d="M197.512,328.589h33.441c10.336,0,18.746-8.41,18.746-18.746v-30.208c0-10.336-8.41-18.746-18.746-18.746h-33.441
				c-10.337,0-18.747,8.41-18.747,18.746v30.208C178.766,320.179,187.175,328.589,197.512,328.589z M194.934,279.635
				c0-1.421,1.157-2.577,2.578-2.577h33.441c1.421,0,2.577,1.156,2.577,2.577v30.208c0,1.421-1.156,2.577-2.577,2.577h-33.441
				c-1.421,0-2.578-1.156-2.578-2.577V279.635z"/>
			<path d="M314.489,183.412h-33.441c-10.337,0-18.747,8.41-18.747,18.746v30.208c0.001,10.336,8.41,18.746,18.747,18.746h33.441
				c10.336,0,18.746-8.41,18.746-18.746v-30.208C333.234,191.822,324.825,183.412,314.489,183.412z M317.067,232.366
				c0,1.421-1.156,2.577-2.577,2.577h-33.441c-1.421,0-2.578-1.155-2.578-2.577v-30.208c0-1.421,1.157-2.577,2.578-2.577h33.441
				c1.421,0,2.577,1.156,2.577,2.577V232.366z"/>
			<path d="M314.49,260.889h-33.441c-10.337,0-18.747,8.41-18.747,18.746v30.208h0c0,10.336,8.41,18.746,18.747,18.746h33.441
				c10.336,0,18.746-8.41,18.746-18.746v-30.208C333.235,269.299,324.826,260.889,314.49,260.889z M317.067,309.843
				c0,1.421-1.156,2.577-2.577,2.577h-33.441c-1.421,0-2.578-1.156-2.578-2.577v-30.208c0-1.421,1.157-2.577,2.578-2.577h33.441
				c1.421,0,2.577,1.156,2.577,2.577V309.843z"/>
		</g>
	</g>
</g>
</svg>